<svg width="22" height="21" viewBox="0 0 22 21" fill="none" xmlns="http://www.w3.org/2000/svg">
    <path fill-rule="evenodd" clip-rule="evenodd" d="M11 0.250015C11.2855 0.250015 11.5462 0.412069 11.6725 0.668047L14.5882 6.57486L21.1085 7.5279C21.3909 7.56918 21.6254 7.76718 21.7134 8.03869C21.8015 8.3102 21.7278 8.60814 21.5233 8.80728L16.8059 13.402L17.9192 19.8932C17.9675 20.1746 17.8518 20.459 17.6208 20.6268C17.3898 20.7946 17.0836 20.8167 16.8309 20.6838L11 17.6174L5.16911 20.6838C4.91642 20.8167 4.6102 20.7946 4.37922 20.6268C4.14823 20.459 4.03255 20.1746 4.08081 19.8932L5.19413 13.402L0.476717 8.80728C0.272253 8.60814 0.198548 8.3102 0.286582 8.03869C0.374615 7.76718 0.609125 7.56918 0.891545 7.5279L7.41182 6.57486L10.3275 0.668047C10.4538 0.412069 10.7146 0.250015 11 0.250015ZM11 2.69446L8.58255 7.59198C8.47339 7.81312 8.2625 7.96646 8.01849 8.00213L2.61133 8.79247L6.52332 12.6027C6.70022 12.7751 6.78097 13.0234 6.73922 13.2668L5.81615 18.6488L10.6509 16.1062C10.8695 15.9913 11.1306 15.9913 11.3491 16.1062L16.1839 18.6488L15.2608 13.2668C15.2191 13.0234 15.2998 12.7751 15.4767 12.6027L19.3887 8.79247L13.9815 8.00213C13.7375 7.96646 13.5266 7.81312 13.4175 7.59198L11 2.69446Z" fill="purple"/>
</svg>